#N canvas 60 32 1860 979 12;
#X obj 405 1 loadbang;
#X msg 405 36 25;
#X obj 312 61 reverbA~;
#X obj 313 99 dac~;
#X obj 312 17 r~ signal;
#X obj 175 166 1loop rec1.wav 0;
#X obj 326 168 1loop rec2.wav 1;
#X obj 478 168 1loop rec3.wav 2;
#X obj 629 170 1loop rec4.wav 3;
#X obj 174 344 1loop rec5.wav 4;
#X obj 325 346 1loop rec6.wav 5;
#X obj 477 346 1loop rec7.wav 6;
#X obj 628 348 1loop rec8.wav 7;
#X obj 175 526 1loop rec9.wav 8;
#X obj 326 528 1loop rec10.wav 9;
#X obj 478 528 1loop rec11.wav 10;
#X obj 629 530 1loop rec12.wav 11;
#X obj 174 704 1loop rec13.wav 12;
#X obj 325 706 1loop rec14.wav 13;
#X obj 477 706 1loop rec15.wav 14;
#X obj 628 708 1loop rec16.wav 15;
#X obj 632 19 loadbang;
#X msg 632 55 \; pd dsp 1;
#X obj 177 16 adc~ 1 2 3 4 5 6;
#X obj 176 63 *~ 1;
#X obj 176 98 s~ signal;
#N canvas 42 20 1864 979 modal 1;
#X obj 109 21 inlet~;
#X listbox 228 135 13 0 0 0 - - - 0;
#X obj 228 105 pack f f f;
#X listbox 228 192 7 0 0 0 - - - 0;
#X listbox 295 192 7 0 0 0 - - - 0;
#X listbox 363 192 7 0 0 0 - - - 0;
#X listbox 430 192 7 0 0 0 - - - 0;
#X text 302 75 <-- first argument \, number of voices second;
#X text 331 91 argument selects voice stealing;
#X obj 232 29 notein;
#X obj 227 216 unpack f f;
#X obj 308 216 unpack f f;
#X obj 390 217 unpack f f;
#X obj 474 215 unpack f f;
#X obj 261 252 / 127;
#X obj 348 254 / 127;
#X obj 439 253 / 127;
#X obj 523 250 / 127;
#X obj 634 330 loadbang;
#X obj 232 410 modal_unit;
#X obj 348 406 modal_unit;
#X obj 459 411 modal_unit;
#X obj 570 414 modal_unit;
#X obj 331 496 outlet~;
#X obj 79 316 mute-below-thresh~ 0.0001;
#X msg 516 329 2000;
#X listbox 510 192 7 0 0 0 - - - 0;
#X obj 554 215 unpack f f;
#X obj 603 250 / 127;
#X obj 650 414 modal_unit;
#X listbox 590 192 7 0 0 0 - - - 0;
#X obj 634 215 unpack f f;
#X obj 683 250 / 127;
#X obj 730 414 modal_unit;
#X listbox 670 192 7 0 0 0 - - - 0;
#X obj 714 215 unpack f f;
#X obj 763 250 / 127;
#X obj 810 414 modal_unit;
#X listbox 760 192 7 0 0 0 - - - 0;
#X obj 804 215 unpack f f;
#X obj 853 250 / 127;
#X obj 900 414 modal_unit;
#X obj 235 75 poly 12 1;
#X obj 228 164 route 1 2 3 4 5 6 7 8 9 10 11 12, f 132;
#X listbox 840 192 7 0 0 0 - - - 0;
#X obj 884 215 unpack f f;
#X obj 933 250 / 127;
#X obj 980 414 modal_unit;
#X listbox 920 192 7 0 0 0 - - - 0;
#X obj 964 215 unpack f f;
#X obj 1013 250 / 127;
#X obj 1060 414 modal_unit;
#X listbox 1000 192 7 0 0 0 - - - 0;
#X obj 1044 215 unpack f f;
#X obj 1093 250 / 127;
#X obj 1140 414 modal_unit;
#X listbox 1080 192 7 0 0 0 - - - 0;
#X obj 1124 215 unpack f f;
#X obj 1173 250 / 127;
#X obj 1220 414 modal_unit;
#X obj 309 354 *~ 10000;
#X connect 0 0 24 0;
#X connect 1 0 43 0;
#X connect 2 0 1 0;
#X connect 3 0 10 0;
#X connect 4 0 11 0;
#X connect 5 0 12 0;
#X connect 6 0 13 0;
#X connect 9 0 42 0;
#X connect 9 1 42 1;
#X connect 10 0 19 2;
#X connect 10 1 14 0;
#X connect 11 0 20 2;
#X connect 11 1 15 0;
#X connect 12 0 21 2;
#X connect 12 1 16 0;
#X connect 13 0 22 2;
#X connect 13 1 17 0;
#X connect 14 0 19 1;
#X connect 15 0 20 1;
#X connect 16 0 21 1;
#X connect 17 0 22 1;
#X connect 18 0 25 0;
#X connect 19 0 23 0;
#X connect 20 0 23 0;
#X connect 21 0 23 0;
#X connect 22 0 23 0;
#X connect 24 0 60 0;
#X connect 25 0 19 3;
#X connect 25 0 22 3;
#X connect 25 0 21 3;
#X connect 25 0 20 3;
#X connect 26 0 27 0;
#X connect 27 0 29 2;
#X connect 27 1 28 0;
#X connect 28 0 29 1;
#X connect 30 0 31 0;
#X connect 31 0 33 2;
#X connect 31 1 32 0;
#X connect 32 0 33 1;
#X connect 34 0 35 0;
#X connect 35 0 37 2;
#X connect 35 1 36 0;
#X connect 36 0 37 1;
#X connect 38 0 39 0;
#X connect 39 0 41 2;
#X connect 39 1 40 0;
#X connect 40 0 41 1;
#X connect 42 0 2 0;
#X connect 42 1 2 1;
#X connect 42 2 2 2;
#X connect 43 0 3 0;
#X connect 43 1 4 0;
#X connect 43 2 5 0;
#X connect 43 3 6 0;
#X connect 43 4 26 0;
#X connect 43 5 30 0;
#X connect 43 6 34 0;
#X connect 43 7 38 0;
#X connect 43 8 44 0;
#X connect 43 9 48 0;
#X connect 43 10 52 0;
#X connect 43 11 56 0;
#X connect 44 0 45 0;
#X connect 45 0 47 2;
#X connect 45 1 46 0;
#X connect 46 0 47 1;
#X connect 48 0 49 0;
#X connect 49 0 51 2;
#X connect 49 1 50 0;
#X connect 50 0 51 1;
#X connect 52 0 53 0;
#X connect 53 0 55 2;
#X connect 53 1 54 0;
#X connect 54 0 55 1;
#X connect 56 0 57 0;
#X connect 57 0 59 2;
#X connect 57 1 58 0;
#X connect 58 0 59 1;
#X connect 60 0 19 0;
#X connect 60 0 20 0;
#X connect 60 0 21 0;
#X connect 60 0 22 0;
#X connect 60 0 29 0;
#X connect 60 0 33 0;
#X connect 60 0 37 0;
#X connect 60 0 41 0;
#X connect 60 0 47 0;
#X connect 60 0 51 0;
#X connect 60 0 55 0;
#X connect 60 0 59 0;
#X restore 228 63 pd modal;
#X connect 0 0 1 0;
#X connect 1 0 2 1;
#X connect 2 0 3 0;
#X connect 2 0 3 1;
#X connect 4 0 2 0;
#X connect 21 0 22 0;
#X connect 23 0 24 0;
#X connect 23 1 24 0;
#X connect 23 2 26 0;
#X connect 23 3 24 0;
#X connect 23 4 24 0;
#X connect 23 5 24 0;
#X connect 24 0 25 0;
#X connect 26 0 24 0;
