#N canvas 60 27 1860 984 12;
#X obj 177 16 adc~ 1 2 3 4 5 6;
#X obj 176 63 *~ 1;
#X obj 405 1 loadbang;
#X msg 405 36 25;
#X obj 312 61 reverbA~;
#X obj 313 99 dac~;
#X obj 176 98 s~ signal;
#X obj 312 17 r~ signal;
#X obj 175 166 1loop rec1.wav 0;
#X obj 326 168 1loop rec2.wav 1;
#X obj 478 168 1loop rec3.wav 2;
#X obj 629 170 1loop rec4.wav 3;
#X obj 174 344 1loop rec5.wav 4;
#X obj 325 346 1loop rec6.wav 5;
#X obj 477 346 1loop rec7.wav 6;
#X obj 628 348 1loop rec8.wav 7;
#X connect 0 0 1 0;
#X connect 0 1 1 0;
#X connect 0 2 1 0;
#X connect 0 3 1 0;
#X connect 0 4 1 0;
#X connect 0 5 1 0;
#X connect 1 0 6 0;
#X connect 2 0 3 0;
#X connect 3 0 4 1;
#X connect 4 0 5 0;
#X connect 4 0 5 1;
#X connect 7 0 4 0;
