#N canvas 60 27 1860 984 12;
#X msg 228 275 stop;
#X msg 265 184 start;
#X obj 582 169 readsf~;
#X obj 648 236 bng 15 250 50 0 empty empty empty 17 7 0 10 #fcfcfc
#000000 #000000;
#X obj 197 233 t b b;
#X obj 651 317 sel 1;
#X msg 755 112 0;
#X msg 623 71 1;
#X msg 683 349 0;
#X floatatom 695 291 5 0 0 0 - - - 0;
#X obj 651 352 bng 15 250 50 0 empty empty empty 17 7 0 10 #fcfcfc
#000000 #000000;
#X obj 634 38 loadbang;
#X obj 648 260 i 1;
#X obj 265 144 t b b;
#X msg 582 136 open \$1 \, 1;
#X msg 297 250 open \$1;
#X obj 297 209 symbol \$1;
#X obj 582 99 symbol \$1;
#X obj 146 196 + 1;
#X msg 170 221 0;
#X floatatom 111 333 5 0 0 0 - - - 0;
#X obj 110 196 i 0;
#X obj 879 115 bng 40 250 50 0 empty empty empty 17 7 0 10 #fcfcfc
#000000 #000000;
#X obj 879 160 tgl 40 0 empty empty empty 17 7 0 10 #fcfcfc #000000
#000000 0 1;
#X obj 96 220 sel 0 1;
#X obj 879 209 bng 40 250 50 0 empty empty empty 17 7 0 10 #fcfcfc
#000000 #000000;
#X msg 198 374 1;
#X obj 110 43 ctlin \$2;
#X obj 110 121 sel 127;
#X obj 368 327 writesf~;
#X obj 367 39 receive~ signal;
#X obj 633 418 loadbang;
#X msg 633 453 25;
#X obj 580 488 reverbA~;
#X obj 581 546 dac~;
#X obj 581 193 *~ 1;
#X msg 851 403 127;
#X msg 856 526 64, f 2;
#X obj 856 624 ctlout \$2 1;
#X obj 896 563 i 0;
#X floatatom 896 588 5 0 0 0 - - - 0;
#X obj 896 525 delay 25;
#X connect 0 0 29 0;
#X connect 1 0 29 0;
#X connect 2 0 35 0;
#X connect 2 1 3 0;
#X connect 3 0 12 0;
#X connect 3 0 25 0;
#X connect 3 0 37 0;
#X connect 4 0 17 0;
#X connect 4 1 7 0;
#X connect 4 1 0 0;
#X connect 5 0 10 0;
#X connect 5 1 8 0;
#X connect 6 0 12 1;
#X connect 7 0 12 1;
#X connect 8 0 23 0;
#X connect 8 0 39 1;
#X connect 10 0 17 0;
#X connect 11 0 7 0;
#X connect 12 0 5 0;
#X connect 12 0 9 0;
#X connect 13 0 1 0;
#X connect 13 1 16 0;
#X connect 14 0 2 0;
#X connect 15 0 29 0;
#X connect 16 0 15 0;
#X connect 17 0 14 0;
#X connect 18 0 21 1;
#X connect 19 0 21 1;
#X connect 21 0 18 0;
#X connect 21 0 24 0;
#X connect 21 0 20 0;
#X connect 22 0 21 0;
#X connect 24 0 26 0;
#X connect 24 0 13 0;
#X connect 24 0 36 0;
#X connect 24 0 37 0;
#X connect 24 1 4 0;
#X connect 24 1 25 0;
#X connect 24 2 19 0;
#X connect 24 2 6 0;
#X connect 24 2 25 0;
#X connect 25 0 37 0;
#X connect 25 0 41 0;
#X connect 26 0 23 0;
#X connect 27 0 28 0;
#X connect 28 0 21 0;
#X connect 30 0 29 0;
#X connect 31 0 32 0;
#X connect 32 0 33 1;
#X connect 33 0 34 0;
#X connect 33 0 34 1;
#X connect 35 0 33 0;
#X connect 36 0 39 1;
#X connect 37 0 38 0;
#X connect 39 0 38 0;
#X connect 39 0 40 0;
#X connect 41 0 39 0;
#X coords 0 -1 1 1 120 160 1 840 100;
