#N canvas 56 32 1864 979 12;
#X obj 182 250 mtof;
#X obj 140 298 *~;
#X obj 141 331 bp~ 200 300;
#X obj 297 42 inlet;
#X obj 357 41 inlet;
#X obj 267 329 bp~ 200 300;
#X obj 327 295 * 2;
#X obj 265 265 *~;
#X obj 266 296 *~ 0.15;
#X obj 385 325 bp~ 200 300;
#X obj 383 261 *~;
#X obj 384 292 *~ 0.05;
#X obj 445 291 * 3;
#X obj 515 326 bp~ 200 300;
#X obj 513 262 *~;
#X obj 514 293 *~ 0.05;
#X obj 572 292 * 4;
#X obj 636 320 bp~ 200 300;
#X obj 634 256 *~;
#X obj 693 286 * 5;
#X obj 635 287 *~ 0.02;
#X obj 763 323 bp~ 200 300;
#X obj 761 259 *~;
#X obj 820 289 * 5;
#X obj 762 290 *~ 0.01;
#X obj 313 428 outlet~;
#X obj 20 25 inlet~;
#X obj 209 120 line~;
#X obj 211 41 sel 0;
#X msg 210 77 0 200;
#X obj 210 17 inlet;
#X msg 271 74 1 500;
#X connect 0 0 2 1;
#X connect 0 0 6 0;
#X connect 0 0 12 0;
#X connect 0 0 16 0;
#X connect 0 0 19 0;
#X connect 0 0 23 0;
#X connect 1 0 2 0;
#X connect 2 0 25 0;
#X connect 3 0 0 0;
#X connect 4 0 2 2;
#X connect 4 0 5 2;
#X connect 4 0 9 2;
#X connect 4 0 13 2;
#X connect 4 0 17 2;
#X connect 4 0 21 2;
#X connect 5 0 25 0;
#X connect 6 0 5 1;
#X connect 7 0 8 0;
#X connect 8 0 5 0;
#X connect 9 0 25 0;
#X connect 10 0 11 0;
#X connect 11 0 9 0;
#X connect 12 0 9 1;
#X connect 13 0 25 0;
#X connect 14 0 15 0;
#X connect 15 0 13 0;
#X connect 16 0 13 1;
#X connect 17 0 25 0;
#X connect 18 0 20 0;
#X connect 19 0 17 1;
#X connect 20 0 17 0;
#X connect 21 0 25 0;
#X connect 22 0 24 0;
#X connect 23 0 21 1;
#X connect 24 0 21 0;
#X connect 26 0 1 0;
#X connect 26 0 7 0;
#X connect 26 0 10 0;
#X connect 26 0 14 0;
#X connect 26 0 18 0;
#X connect 26 0 22 0;
#X connect 27 0 7 1;
#X connect 27 0 10 1;
#X connect 27 0 14 1;
#X connect 27 0 18 1;
#X connect 27 0 22 1;
#X connect 27 0 1 1;
#X connect 28 0 29 0;
#X connect 28 1 31 0;
#X connect 29 0 27 0;
#X connect 30 0 28 0;
#X connect 31 0 27 0;
